# This file uses centimeters as units for non-parametric coordinates.

mtllib prop_nenufar_UVS_OK.mtl
g default
v 0.246132 0.641741 -0.686458
v 0.059839 0.308928 -0.335089
v 0.529205 0.854602 -0.829450
v 0.412894 0.646812 -0.610075
v 0.218735 0.299947 -0.243870
v 0.102424 0.092158 -0.024495
v 0.571790 0.637832 -0.518856
v 0.385497 0.305019 -0.167487
v 0.364966 0.179058 -0.062604
v 0.727693 0.350054 -0.434048
v 0.008661 0.045714 0.043385
v 0.235128 0.152474 -0.188524
v 0.613171 0.330690 -0.575651
v 0.839638 0.437450 -0.807560
v 0.120606 0.133111 -0.330127
v 0.483333 0.304106 -0.701571
v 0.724015 0.602309 0.274773
v 0.427885 0.262521 0.021667
v 0.772095 0.854069 0.546018
v 0.587207 0.641924 0.387993
v 0.278574 0.287789 0.124200
v 0.093687 0.075645 -0.033825
v 0.437897 0.667193 0.490526
v 0.141767 0.327405 0.237420
v 0.866025 0.095670 -0.478118
v 0.503590 0.095670 -0.801902
v -0.100370 0.095670 -0.924138
v -0.500000 0.095670 -0.844143
v -0.866025 0.095670 -0.478118
v -1.000000 0.095670 0.021882
v -0.866025 0.095670 0.521882
v -0.500000 0.095670 0.887908
v 0.000000 0.095670 1.021882
v 0.500000 0.095670 0.887908
v 0.866025 0.095670 0.521882
v 1.000000 0.095670 0.021882
v 0.000000 0.095670 0.021882
v -0.243986 0.095670 -0.937464
v 0.623848 0.093360 -0.737696
v 0.341942 0.095670 -0.755032
v -0.020444 0.095670 -0.839746
v 0.714138 0.632670 -0.300745
v 0.332424 0.290366 -0.239872
v 0.967032 0.871955 -0.158269
v 0.728711 0.658240 -0.120264
v 0.330880 0.301482 -0.056821
v 0.092559 0.087767 -0.018815
v 0.727167 0.669356 0.062788
v 0.345453 0.327051 0.123661
v 0.125437 0.391905 -0.810207
v 0.025322 0.121958 -0.363092
v 0.309967 0.650864 -1.002069
v 0.247460 0.482325 -0.722916
v 0.143118 0.200982 -0.256923
v 0.080612 0.032442 0.022230
v 0.365256 0.561348 -0.616746
v 0.265141 0.291402 -0.169632
v 0.467094 0.443669 0.680980
v 0.372049 0.188422 0.221146
v 0.348008 0.624716 1.002718
v 0.288667 0.465354 0.715624
v 0.189608 0.199330 0.236375
v 0.130268 0.039968 -0.050719
v 0.106226 0.476262 0.730853
v 0.011181 0.221015 0.271019
v 0.817849 0.547783 0.201315
v 0.447521 0.261818 -0.044907
v 0.985124 0.697361 0.523698
v 0.753911 0.518820 0.369971
v 0.367947 0.220781 0.113354
v 0.136734 0.042240 -0.040373
v 0.674337 0.477783 0.528232
v 0.304009 0.191818 0.282010
v -0.501345 0.622309 0.228941
v -0.124823 0.280004 0.141523
v -0.763584 0.861593 0.104500
v -0.528504 0.647878 0.049921
v -0.136084 0.291120 -0.041188
v 0.098995 0.077405 -0.095767
v -0.539766 0.658994 -0.132790
v -0.163243 0.316690 -0.220208
v -0.099115 0.601394 0.306799
v 0.091249 0.250713 0.201948
v -0.294628 0.835618 0.206609
v -0.175775 0.616673 0.141145
v 0.022627 0.251184 0.031866
v 0.141480 0.032239 -0.033597
v -0.244397 0.617145 -0.028937
v -0.054033 0.266463 -0.133788
v -0.551446 0.591947 -0.344477
v -0.238340 0.252159 -0.112699
v -0.618376 0.843707 -0.611696
v -0.422891 0.631563 -0.466987
v -0.096565 0.277428 -0.225423
v 0.098920 0.065283 -0.080715
v -0.281116 0.656831 -0.579711
v 0.031989 0.317043 -0.347933
v -0.432130 0.343371 -0.674273
v -0.215768 0.138155 -0.221347
v -0.403696 0.516262 -1.021882
v -0.268611 0.388137 -0.739101
v -0.043114 0.174257 -0.267052
v 0.091971 0.046132 0.015730
v -0.095957 0.424239 -0.784805
v 0.120405 0.219024 -0.331880
v -0.721575 0.427901 -0.150463
v -0.263897 0.217668 0.048627
v -0.964872 0.528339 -0.449633
v -0.679123 0.397081 -0.325333
v -0.202121 0.177972 -0.117836
v 0.083628 0.046714 0.006464
v -0.617347 0.357385 -0.491796
v -0.159669 0.147152 -0.292706
v -0.458422 0.389258 0.579857
v -0.017724 0.190840 0.331890
v -0.838456 0.504140 0.584450
v -0.563309 0.380259 0.429633
v -0.104003 0.173463 0.171196
v 0.171143 0.049582 0.016379
v -0.649588 0.362883 0.268940
v -0.208891 0.164465 0.020973
v -0.007512 0.631379 0.580981
v 0.153753 0.298566 0.217445
v -0.279892 0.844240 0.743419
v -0.179207 0.636451 0.516447
v -0.011133 0.289585 0.137561
v 0.089552 0.081796 -0.089411
v -0.344093 0.627470 0.436563
v -0.182828 0.294657 0.073027
v -0.106683 0.411526 0.725086
v 0.117652 0.141726 0.325442
v -0.368846 0.646068 0.861453
v -0.228784 0.477619 0.611938
v 0.005023 0.196427 0.195419
v 0.145086 0.027979 -0.054096
v -0.341413 0.532321 0.481915
v -0.117077 0.262521 0.082271
vt 0.509691 0.732429
vt 0.582865 0.816331
vt 0.443132 0.954400
vt 0.733498 0.511286
vt 0.816121 0.585851
vt 0.955853 0.447782
vt 0.665487 0.890896
vt 0.889294 0.669753
vt 0.437444 0.963089
vt 0.507598 0.740135
vt 0.580277 0.820284
vt 0.736371 0.511407
vt 0.818708 0.581898
vt 0.961541 0.439093
vt 0.662615 0.890775
vt 0.891387 0.662047
vt 0.444172 0.956334
vt 0.506256 0.737429
vt 0.583338 0.817211
vt 0.729154 0.514598
vt 0.815648 0.584971
vt 0.954813 0.445848
vt 0.669831 0.887584
vt 0.892729 0.664753
vt 0.530541 0.107430
vt 0.537301 0.161719
vt 0.349208 0.363592
vt 0.387305 0.040775
vt 0.495921 0.079759
vt 0.672025 0.401688
vt 0.609129 0.259050
vt 0.644593 0.272080
vt 0.667016 0.313255
vt 0.609727 0.557993
vt 0.477623 0.662208
vt 0.311111 0.686408
vt 0.154806 0.624111
vt 0.050592 0.492007
vt 0.026391 0.325495
vt 0.088688 0.169190
vt 0.220792 0.064975
vt 0.444977 0.955676
vt 0.507810 0.735489
vt 0.583703 0.816911
vt 0.730006 0.513233
vt 0.815281 0.585271
vt 0.954008 0.446507
vt 0.668979 0.888949
vt 0.891175 0.666693
vt 0.435698 0.965119
vt 0.501624 0.747333
vt 0.579482 0.821207
vt 0.731920 0.516832
vt 0.819503 0.580975
vt 0.963287 0.437064
vt 0.667065 0.885349
vt 0.897361 0.654849
vt 0.440576 0.959989
vt 0.507937 0.737971
vt 0.581701 0.818874
vt 0.733975 0.511949
vt 0.817284 0.583308
vt 0.958409 0.442193
vt 0.665010 0.890233
vt 0.891048 0.664211
vt 0.439696 0.957837
vt 0.511999 0.732245
vt 0.581302 0.817894
vt 0.738805 0.508102
vt 0.817684 0.584288
vt 0.959289 0.444345
vt 0.660180 0.894081
vt 0.886986 0.669937
vt 0.444977 0.955676
vt 0.507810 0.735490
vt 0.583704 0.816912
vt 0.730006 0.513233
vt 0.815282 0.585270
vt 0.954008 0.446506
vt 0.668979 0.888949
vt 0.891175 0.666693
vt 0.438657 0.965698
vt 0.507865 0.741563
vt 0.581848 0.822491
vt 0.737211 0.512191
vt 0.820879 0.583433
vt 0.964070 0.440225
vt 0.665516 0.893734
vt 0.894862 0.664360
vt 0.444172 0.956334
vt 0.506256 0.737429
vt 0.583337 0.817211
vt 0.729155 0.514597
vt 0.815648 0.584971
vt 0.954813 0.445849
vt 0.669831 0.887585
vt 0.892729 0.664753
vt 0.437635 0.962897
vt 0.506365 0.741256
vt 0.580364 0.820197
vt 0.734971 0.512695
vt 0.818621 0.581986
vt 0.961351 0.439285
vt 0.664014 0.889487
vt 0.892620 0.660927
vt 0.436541 0.960858
vt 0.510698 0.735311
vt 0.579866 0.819270
vt 0.740258 0.508530
vt 0.819119 0.582913
vt 0.962444 0.441323
vt 0.658727 0.893652
vt 0.888287 0.666871
vt 0.437017 0.960497
vt 0.509387 0.736409
vt 0.580083 0.819105
vt 0.738532 0.509943
vt 0.818903 0.583077
vt 0.961969 0.441685
vt 0.660453 0.892239
vt 0.889598 0.665773
vt 0.443132 0.954400
vt 0.509691 0.732429
vt 0.582864 0.816331
vt 0.733498 0.511287
vt 0.816121 0.585851
vt 0.955853 0.447782
vt 0.665487 0.890896
vt 0.889294 0.669753
vt 0.438559 0.962075
vt 0.504054 0.743100
vt 0.580784 0.819822
vt 0.731853 0.515258
vt 0.818202 0.582359
vt 0.960426 0.440107
vt 0.667132 0.886924
vt 0.894931 0.659082
vn -0.286434 0.766797 0.574437
vn -0.286433 0.766797 0.574437
vn -0.286433 0.766797 0.574437
vn -0.286433 0.766797 0.574437
vn -0.286433 0.766797 0.574437
vn -0.286433 0.766797 0.574437
vn -0.286433 0.766797 0.574437
vn -0.286433 0.766797 0.574437
vn -0.286433 0.766797 0.574437
vn -0.286433 0.766797 0.574437
vn -0.286434 0.766797 0.574437
vn -0.286433 0.766797 0.574437
vn -0.286433 0.766797 0.574437
vn -0.286434 0.766797 0.574437
vn -0.286433 0.766797 0.574437
vn -0.286433 0.766797 0.574437
vn -0.286433 0.766797 0.574437
vn -0.286433 0.766797 0.574437
vn -0.286433 0.766797 0.574437
vn -0.286434 0.766797 0.574437
vn -0.314665 0.940826 0.125831
vn -0.314665 0.940825 0.125831
vn -0.314665 0.940825 0.125831
vn -0.314665 0.940825 0.125831
vn -0.314665 0.940825 0.125831
vn -0.314665 0.940825 0.125831
vn -0.314665 0.940825 0.125831
vn -0.314665 0.940825 0.125831
vn -0.314665 0.940825 0.125831
vn -0.314665 0.940825 0.125831
vn -0.314665 0.940826 0.125831
vn -0.314665 0.940825 0.125831
vn -0.314665 0.940825 0.125831
vn -0.314665 0.940825 0.125831
vn -0.314665 0.940825 0.125831
vn -0.314665 0.940825 0.125831
vn -0.314665 0.940825 0.125831
vn -0.314665 0.940825 0.125831
vn -0.314665 0.940825 0.125831
vn -0.314665 0.940825 0.125831
vn -0.302470 0.724749 -0.619072
vn -0.302470 0.724750 -0.619072
vn -0.302469 0.724750 -0.619072
vn -0.302469 0.724750 -0.619072
vn -0.302470 0.724750 -0.619072
vn -0.302470 0.724750 -0.619072
vn -0.302469 0.724750 -0.619072
vn -0.302470 0.724750 -0.619072
vn -0.302470 0.724749 -0.619072
vn -0.302469 0.724750 -0.619072
vn -0.302470 0.724749 -0.619072
vn -0.302469 0.724750 -0.619072
vn -0.302469 0.724750 -0.619072
vn -0.302469 0.724750 -0.619072
vn -0.302469 0.724750 -0.619072
vn -0.302469 0.724750 -0.619072
vn -0.302469 0.724750 -0.619072
vn -0.302469 0.724750 -0.619072
vn -0.302470 0.724749 -0.619072
vn -0.302469 0.724750 -0.619072
vn 0.001275 0.999998 -0.001427
vn 0.001275 0.999998 -0.001427
vn 0.000160 1.000000 -0.000179
vn 0.000697 1.000000 -0.000780
vn 0.001275 0.999998 -0.001427
vn 0.000000 1.000000 0.000000
vn 0.000160 1.000000 -0.000179
vn 0.000000 1.000000 0.000000
vn 0.000000 1.000000 0.000000
vn 0.000000 1.000000 0.000000
vn 0.000000 1.000000 0.000000
vn 0.000160 1.000000 -0.000179
vn 0.000000 1.000000 0.000000
vn 0.000000 1.000000 0.000000
vn 0.000160 1.000000 -0.000179
vn 0.000000 1.000000 0.000000
vn 0.000000 1.000000 0.000000
vn 0.000160 1.000000 -0.000179
vn 0.000000 1.000000 0.000000
vn 0.000000 1.000000 0.000000
vn 0.000160 1.000000 -0.000179
vn 0.000000 1.000000 0.000000
vn 0.000000 1.000000 0.000000
vn 0.000160 1.000000 -0.000179
vn 0.000000 1.000000 0.000000
vn 0.000000 1.000000 0.000000
vn 0.000160 1.000000 -0.000179
vn 0.000000 1.000000 0.000000
vn 0.000000 1.000000 0.000000
vn 0.000160 1.000000 -0.000179
vn 0.000000 1.000000 0.000000
vn 0.000000 1.000000 0.000000
vn 0.000160 1.000000 -0.000179
vn 0.000000 1.000000 0.000000
vn 0.000697 1.000000 -0.000780
vn 0.000160 1.000000 -0.000179
vn 0.000000 1.000000 0.000000
vn -0.671233 0.739519 -0.050570
vn -0.671234 0.739519 -0.050570
vn -0.671233 0.739519 -0.050570
vn -0.671233 0.739519 -0.050570
vn -0.671234 0.739519 -0.050570
vn -0.671233 0.739519 -0.050570
vn -0.671233 0.739519 -0.050570
vn -0.671233 0.739519 -0.050570
vn -0.671233 0.739520 -0.050570
vn -0.671233 0.739519 -0.050570
vn -0.671233 0.739519 -0.050570
vn -0.671233 0.739519 -0.050570
vn -0.671232 0.739520 -0.050570
vn -0.671233 0.739520 -0.050570
vn -0.671232 0.739520 -0.050570
vn -0.671233 0.739519 -0.050570
vn -0.671233 0.739519 -0.050570
vn -0.671233 0.739519 -0.050570
vn -0.671233 0.739520 -0.050570
vn -0.671233 0.739520 -0.050570
vn -0.687170 0.679707 0.256507
vn -0.687170 0.679707 0.256507
vn -0.687170 0.679707 0.256507
vn -0.687170 0.679707 0.256507
vn -0.687170 0.679707 0.256507
vn -0.687170 0.679707 0.256507
vn -0.687169 0.679707 0.256508
vn -0.687170 0.679707 0.256507
vn -0.687169 0.679708 0.256508
vn -0.687169 0.679707 0.256508
vn -0.687170 0.679707 0.256507
vn -0.687170 0.679707 0.256507
vn -0.687169 0.679707 0.256508
vn -0.687169 0.679708 0.256508
vn -0.687169 0.679707 0.256508
vn -0.687170 0.679707 0.256507
vn -0.687169 0.679707 0.256508
vn -0.687169 0.679707 0.256508
vn -0.687169 0.679708 0.256508
vn -0.687169 0.679708 0.256508
vn 0.011549 0.873259 -0.487120
vn 0.011549 0.873258 -0.487121
vn 0.011549 0.873258 -0.487121
vn 0.011549 0.873258 -0.487121
vn 0.011549 0.873258 -0.487121
vn 0.011549 0.873258 -0.487121
vn 0.011549 0.873258 -0.487121
vn 0.011549 0.873258 -0.487121
vn 0.011549 0.873258 -0.487121
vn 0.011549 0.873258 -0.487121
vn 0.011549 0.873259 -0.487120
vn 0.011549 0.873258 -0.487121
vn 0.011550 0.873258 -0.487121
vn 0.011550 0.873258 -0.487121
vn 0.011550 0.873258 -0.487121
vn 0.011549 0.873258 -0.487121
vn 0.011549 0.873258 -0.487121
vn 0.011549 0.873258 -0.487121
vn 0.011549 0.873258 -0.487121
vn 0.011550 0.873258 -0.487121
vn -0.576011 0.813651 -0.078639
vn -0.576010 0.813651 -0.078639
vn -0.576010 0.813651 -0.078639
vn -0.576010 0.813651 -0.078639
vn -0.576010 0.813651 -0.078639
vn -0.576010 0.813651 -0.078639
vn -0.576010 0.813651 -0.078639
vn -0.576010 0.813651 -0.078639
vn -0.576010 0.813651 -0.078639
vn -0.576010 0.813651 -0.078639
vn -0.576011 0.813651 -0.078639
vn -0.576010 0.813651 -0.078639
vn -0.576010 0.813651 -0.078639
vn -0.576011 0.813651 -0.078639
vn -0.576010 0.813651 -0.078639
vn -0.576010 0.813651 -0.078639
vn -0.576010 0.813651 -0.078639
vn -0.576010 0.813651 -0.078639
vn -0.576010 0.813651 -0.078639
vn -0.576011 0.813651 -0.078639
vn 0.673126 0.739519 0.003505
vn 0.673126 0.739520 0.003505
vn 0.673126 0.739520 0.003505
vn 0.673126 0.739520 0.003505
vn 0.673126 0.739520 0.003505
vn 0.673126 0.739520 0.003505
vn 0.673126 0.739520 0.003505
vn 0.673126 0.739520 0.003505
vn 0.673126 0.739519 0.003505
vn 0.673126 0.739520 0.003505
vn 0.673126 0.739519 0.003505
vn 0.673126 0.739520 0.003505
vn 0.673126 0.739519 0.003505
vn 0.673126 0.739519 0.003505
vn 0.673126 0.739519 0.003505
vn 0.673126 0.739520 0.003505
vn 0.673126 0.739520 0.003505
vn 0.673126 0.739520 0.003505
vn 0.673126 0.739519 0.003505
vn 0.673126 0.739519 0.003505
vn 0.790378 0.523962 -0.317437
vn 0.790378 0.523962 -0.317437
vn 0.790378 0.523962 -0.317437
vn 0.790378 0.523962 -0.317437
vn 0.790378 0.523962 -0.317437
vn 0.790378 0.523962 -0.317437
vn 0.790378 0.523962 -0.317437
vn 0.790378 0.523962 -0.317437
vn 0.790379 0.523961 -0.317437
vn 0.790378 0.523962 -0.317437
vn 0.790378 0.523962 -0.317437
vn 0.790378 0.523962 -0.317437
vn 0.790378 0.523962 -0.317437
vn 0.790378 0.523962 -0.317437
vn 0.790378 0.523962 -0.317437
vn 0.790378 0.523962 -0.317437
vn 0.790378 0.523962 -0.317437
vn 0.790378 0.523962 -0.317437
vn 0.790379 0.523961 -0.317437
vn 0.790378 0.523962 -0.317437
vn 0.345023 0.724749 0.596404
vn 0.345023 0.724750 0.596404
vn 0.345022 0.724750 0.596404
vn 0.345022 0.724750 0.596404
vn 0.345023 0.724750 0.596404
vn 0.345022 0.724750 0.596404
vn 0.345022 0.724750 0.596404
vn 0.345022 0.724750 0.596404
vn 0.345022 0.724749 0.596404
vn 0.345022 0.724750 0.596404
vn 0.345023 0.724749 0.596404
vn 0.345022 0.724750 0.596404
vn 0.345022 0.724750 0.596404
vn 0.345022 0.724750 0.596404
vn 0.345022 0.724750 0.596404
vn 0.345022 0.724750 0.596404
vn 0.345022 0.724750 0.596404
vn 0.345022 0.724750 0.596404
vn 0.345022 0.724749 0.596404
vn 0.345022 0.724750 0.596404
vn -0.070872 0.895414 0.439557
vn -0.070872 0.895414 0.439557
vn -0.070872 0.895414 0.439557
vn -0.070872 0.895414 0.439557
vn -0.070872 0.895414 0.439557
vn -0.070872 0.895414 0.439557
vn -0.070872 0.895414 0.439557
vn -0.070872 0.895414 0.439557
vn -0.070872 0.895414 0.439557
vn -0.070872 0.895414 0.439557
vn -0.070872 0.895414 0.439557
vn -0.070872 0.895414 0.439557
vn -0.070872 0.895414 0.439557
vn -0.070872 0.895414 0.439557
vn -0.070872 0.895414 0.439557
vn -0.070872 0.895414 0.439557
vn -0.070872 0.895414 0.439557
vn -0.070872 0.895414 0.439557
vn -0.070872 0.895414 0.439557
vn -0.070872 0.895414 0.439557
vn 0.435646 0.898579 -0.052612
vn 0.435646 0.898579 -0.052612
vn 0.435646 0.898579 -0.052612
vn 0.435646 0.898579 -0.052612
vn 0.435646 0.898579 -0.052612
vn 0.435646 0.898579 -0.052612
vn 0.435646 0.898579 -0.052612
vn 0.435646 0.898579 -0.052612
vn 0.435646 0.898579 -0.052612
vn 0.435646 0.898579 -0.052612
vn 0.435646 0.898579 -0.052612
vn 0.435646 0.898579 -0.052612
vn 0.435646 0.898579 -0.052612
vn 0.435647 0.898579 -0.052612
vn 0.435646 0.898579 -0.052612
vn 0.435646 0.898579 -0.052612
vn 0.435646 0.898579 -0.052612
vn 0.435646 0.898579 -0.052612
vn 0.435646 0.898579 -0.052612
vn 0.435647 0.898579 -0.052612
vn 0.277464 0.927826 -0.249305
vn 0.277464 0.927826 -0.249304
vn 0.277465 0.927826 -0.249304
vn 0.277465 0.927826 -0.249304
vn 0.277464 0.927826 -0.249304
vn 0.277465 0.927826 -0.249304
vn 0.277465 0.927826 -0.249304
vn 0.277465 0.927826 -0.249304
vn 0.277465 0.927826 -0.249304
vn 0.277465 0.927826 -0.249304
vn 0.277464 0.927826 -0.249305
vn 0.277465 0.927826 -0.249304
vn 0.277465 0.927826 -0.249304
vn 0.277465 0.927826 -0.249304
vn 0.277465 0.927826 -0.249304
vn 0.277465 0.927826 -0.249304
vn 0.277465 0.927826 -0.249304
vn 0.277465 0.927826 -0.249304
vn 0.277465 0.927826 -0.249304
vn 0.277465 0.927826 -0.249304
vn 0.245560 0.766797 -0.593062
vn 0.245560 0.766797 -0.593062
vn 0.245560 0.766797 -0.593062
vn 0.245560 0.766797 -0.593062
vn 0.245560 0.766797 -0.593062
vn 0.245560 0.766797 -0.593062
vn 0.245560 0.766797 -0.593062
vn 0.245560 0.766797 -0.593062
vn 0.245561 0.766797 -0.593062
vn 0.245560 0.766797 -0.593062
vn 0.245560 0.766797 -0.593062
vn 0.245560 0.766797 -0.593062
vn 0.245560 0.766797 -0.593062
vn 0.245560 0.766797 -0.593062
vn 0.245560 0.766797 -0.593062
vn 0.245560 0.766797 -0.593062
vn 0.245560 0.766797 -0.593062
vn 0.245560 0.766797 -0.593062
vn 0.245561 0.766797 -0.593062
vn 0.245560 0.766797 -0.593062
vn 0.597789 0.778767 -0.190185
vn 0.597789 0.778767 -0.190185
vn 0.597789 0.778767 -0.190185
vn 0.597789 0.778767 -0.190185
vn 0.597789 0.778767 -0.190185
vn 0.597789 0.778767 -0.190185
vn 0.597789 0.778767 -0.190185
vn 0.597789 0.778767 -0.190185
vn 0.597789 0.778767 -0.190185
vn 0.597789 0.778767 -0.190185
vn 0.597789 0.778767 -0.190185
vn 0.597789 0.778767 -0.190185
vn 0.597789 0.778767 -0.190185
vn 0.597789 0.778767 -0.190185
vn 0.597789 0.778767 -0.190185
vn 0.597789 0.778767 -0.190185
vn 0.597789 0.778767 -0.190185
vn 0.597789 0.778767 -0.190185
vn 0.597789 0.778767 -0.190185
vn 0.597789 0.778767 -0.190185
s off
g polySurface5
usemtl initialShadingGroup
f 3/3/1 1/1/2 4/2/3
f 4/2/4 1/1/5 2/4/6 5/5/7
f 2/4/8 6/6/9 5/5/10
f 3/3/11 4/2/12 7/7/13
f 8/8/14 7/7/15 4/2/16 5/5/17
f 5/5/18 6/6/19 8/8/20
f 11/9/21 9/10/22 12/11/23
f 12/11/24 9/10/25 10/12/26 13/13/27
f 10/12/28 14/14/29 13/13/30
f 11/9/31 12/11/32 15/15/33
f 16/16/34 15/15/35 12/11/36 13/13/37
f 13/13/38 14/14/39 16/16/40
f 19/17/41 17/18/42 20/19/43
f 20/19/44 17/18/45 18/20/46 21/21/47
f 18/20/48 22/22/49 21/21/50
f 19/17/51 20/19/52 23/23/53
f 24/24/54 23/23/55 20/19/56 21/21/57
f 21/21/58 22/22/59 24/24/60
f 26/25/61 40/26/62 37/27/63 25/28/64 39/29/65
f 28/30/66 37/27/67 41/31/68 27/32/69 38/33/70
f 29/34/71 37/27/72 28/30/73
f 30/35/74 37/27/75 29/34/76
f 31/36/77 37/27/78 30/35/79
f 32/37/80 37/27/81 31/36/82
f 33/38/83 37/27/84 32/37/85
f 34/39/86 37/27/87 33/38/88
f 35/40/89 37/27/90 34/39/91
f 36/41/92 37/27/93 35/40/94
f 25/28/95 37/27/96 36/41/97
f 44/42/98 42/43/99 45/44/100
f 45/44/101 42/43/102 43/45/103 46/46/104
f 43/45/105 47/47/106 46/46/107
f 44/42/108 45/44/109 48/48/110
f 49/49/111 48/48/112 45/44/113 46/46/114
f 46/46/115 47/47/116 49/49/117
f 52/50/118 50/51/119 53/52/120
f 53/52/121 50/51/122 51/53/123 54/54/124
f 51/53/125 55/55/126 54/54/127
f 52/50/128 53/52/129 56/56/130
f 57/57/131 56/56/132 53/52/133 54/54/134
f 54/54/135 55/55/136 57/57/137
f 60/58/138 58/59/139 61/60/140
f 61/60/141 58/59/142 59/61/143 62/62/144
f 59/61/145 63/63/146 62/62/147
f 60/58/148 61/60/149 64/64/150
f 65/65/151 64/64/152 61/60/153 62/62/154
f 62/62/155 63/63/156 65/65/157
f 68/66/158 66/67/159 69/68/160
f 69/68/161 66/67/162 67/69/163 70/70/164
f 67/69/165 71/71/166 70/70/167
f 68/66/168 69/68/169 72/72/170
f 73/73/171 72/72/172 69/68/173 70/70/174
f 70/70/175 71/71/176 73/73/177
f 76/74/178 74/75/179 77/76/180
f 77/76/181 74/75/182 75/77/183 78/78/184
f 75/77/185 79/79/186 78/78/187
f 76/74/188 77/76/189 80/80/190
f 81/81/191 80/80/192 77/76/193 78/78/194
f 78/78/195 79/79/196 81/81/197
f 84/82/198 82/83/199 85/84/200
f 85/84/201 82/83/202 83/85/203 86/86/204
f 83/85/205 87/87/206 86/86/207
f 84/82/208 85/84/209 88/88/210
f 89/89/211 88/88/212 85/84/213 86/86/214
f 86/86/215 87/87/216 89/89/217
f 92/90/218 90/91/219 93/92/220
f 93/92/221 90/91/222 91/93/223 94/94/224
f 91/93/225 95/95/226 94/94/227
f 92/90/228 93/92/229 96/96/230
f 97/97/231 96/96/232 93/92/233 94/94/234
f 94/94/235 95/95/236 97/97/237
f 100/98/238 98/99/239 101/100/240
f 101/100/241 98/99/242 99/101/243 102/102/244
f 99/101/245 103/103/246 102/102/247
f 100/98/248 101/100/249 104/104/250
f 105/105/251 104/104/252 101/100/253 102/102/254
f 102/102/255 103/103/256 105/105/257
f 108/106/258 106/107/259 109/108/260
f 109/108/261 106/107/262 107/109/263 110/110/264
f 107/109/265 111/111/266 110/110/267
f 108/106/268 109/108/269 112/112/270
f 113/113/271 112/112/272 109/108/273 110/110/274
f 110/110/275 111/111/276 113/113/277
f 116/114/278 114/115/279 117/116/280
f 117/116/281 114/115/282 115/117/283 118/118/284
f 115/117/285 119/119/286 118/118/287
f 116/114/288 117/116/289 120/120/290
f 121/121/291 120/120/292 117/116/293 118/118/294
f 118/118/295 119/119/296 121/121/297
f 124/122/298 122/123/299 125/124/300
f 125/124/301 122/123/302 123/125/303 126/126/304
f 123/125/305 127/127/306 126/126/307
f 124/122/308 125/124/309 128/128/310
f 129/129/311 128/128/312 125/124/313 126/126/314
f 126/126/315 127/127/316 129/129/317
f 132/130/318 130/131/319 133/132/320
f 133/132/321 130/131/322 131/133/323 134/134/324
f 131/133/325 135/135/326 134/134/327
f 132/130/328 133/132/329 136/136/330
f 137/137/331 136/136/332 133/132/333 134/134/334
f 134/134/335 135/135/336 137/137/337
